<?xml version="1.0" standalone="no"?>
<!DOCTYPE svg PUBLIC "-//W3C//DTD SVG 20010904//EN"
 "http://www.w3.org/TR/2001/REC-SVG-20010904/DTD/svg10.dtd">
<svg version="1.0" xmlns="http://www.w3.org/2000/svg"
 width="760.000000pt" height="760.000000pt" viewBox="0 0 760.000000 760.000000"
 preserveAspectRatio="xMidYMid meet">
<metadata>
Created by potrace 1.11, written by Peter Selinger 2001-2013
</metadata>
<g transform="translate(0.000000,760.000000) scale(0.100000,-0.100000)"
fill="#000000" stroke="none">
<path d="M3555 7594 c-849 -69 -1572 -361 -2210 -893 -116 -96 -350 -330 -446
-446 -491 -588 -782 -1261 -876 -2025 -27 -221 -24 -668 5 -890 92 -683 332
-1283 723 -1805 1011 -1352 2765 -1876 4354 -1300 898 326 1659 1004 2090
1864 409 818 510 1766 281 2653 -170 656 -516 1261 -995 1738 -602 599 -1353
966 -2211 1080 -150 20 -584 34 -715 24z m458 -2999 c154 -44 266 -113 379
-233 156 -165 224 -355 215 -597 -6 -174 -46 -297 -140 -435 -109 -159 -306
-292 -494 -334 -105 -23 -289 -21 -388 4 -535 137 -787 736 -513 1219 52 90
176 220 268 279 193 125 450 162 673 97z"/>
</g>
</svg>
